/* XPM */
static char *_752b6f1390e4c89f3e3b625adce6dfd[] = {
/* columns rows colors chars-per-pixel */
"32 32 33 1 ",
"  c #0F8FCA",
". c #108FC8",
"X c #108FCA",
"o c #108FCB",
"O c #118FCB",
"+ c #108FCC",
"@ c #118FCC",
"# c #108FCE",
"$ c #1090CA",
"% c #1190CA",
"& c #1090CB",
"* c #1190CB",
"= c #1191CB",
"- c #1290CB",
"; c #1291CB",
": c #1391CB",
"> c #1592CB",
", c #1190CC",
"< c #1191CC",
"1 c #1291CC",
"2 c #1391CC",
"3 c #1291CD",
"4 c #1391CD",
"5 c #1292CD",
"6 c #7CCBFF",
"7 c #7CCCFF",
"8 c #7DCCFF",
"9 c #7CCDFF",
"0 c #7DCDFF",
"q c #7ECCFF",
"w c #7ECDFF",
"e c #7DCEFF",
"r c None",
/* pixels */
"rrrrrrrrrrrrrrrrrrrrrrrrrrrrrrrr",
"rrrrrrrrrrrrrrrrrrrrrrrrrrrrrrrr",
"rrrrrrrrrrrrrr,$rrrrrrrrrrrrrrrr",
"rrrrrrrrrrrrr$$r,rrrrrrrrrrrrrrr",
"rrrrrrrrrrrr,$rrrrrrrrrrrrrrrrrr",
"rrrrrrrrrrrr>rrrrr2rrrrrrrrrrrrr",
"rrrrrrrrrrr>rrrrrrrrrrrrrrrrrrrr",
"rrrrrrrrr$orrrrrrrrrrrrrrrrrrrrr",
"rrrrrrrrr,rrrrrrrrrrrrrrrrrrrrrr",
"rrrrrrrr2rrrrrwrrrrrrrrrrrrrrrrr",
"rrrrrrr,rrrr677wrrrrrrrrrrrrrrrr",
"rrrrrr,rrrrrwrrwwrrrrrrrrrrrrrrr",
"rrrrr$rrrrrwrrrrw6rrrrrrrrrrrrrr",
"rrrrorrrrrrwrrrrwwrrrrrrrrrrrrrr",
"rrr,rrrrrrrwrrrrrrrrrrrrrrrrrrrr",
"r $rrrrrrrrwwrrrrrrrrrrrrrrrrrrr",
"rr>rrrrrrrrrrw6www6rrrrrrrrrrrrr",
"rrr>rrrrrrrrrrrrrrwwrrrrrrr,rrrr",
"rrrr,rrrrrrrrrrrrr6rrrrrrr$rrrrr",
"rrrrr$rrrrrrrrrrrwrrrrrrr,rrrrrr",
"rrrrrr$rrrrrrrw6wrrrrrr22rrrrrrr",
"rrrrrrr2rrrrrr6wrrrrrr$,rrrrrrrr",
"rrrrrrrr#rrrrrrrrrrrrr$rrrrrrrrr",
"rrrrrrrrr$rrrrrrrrrrr,rrrrrrrrrr",
"rrrrrrrrrr2rrrrrrrrr,rrrrrrrrrrr",
"rrrrrrrrrrr$rrrrrrr$rrrrrrrrrrrr",
"rrrrrrrrrrrr#rrrrr$rrrrrrrrrrrrr",
"rrrrrrrrrrrrr>rrr,rrrrrrrrrrrrrr",
"rrrrrrrrrrrrrr#$$rrrrrrrrrrrrrrr",
"rrrrrrrrrrrrrrr,rrrrrrrrrrrrrrrr",
"rrrrrrrrrrrrrrrrrrrrrrrrrrrrrrrr",
"rrrrrrrrrrrrrrrrrrrrrrrrrrrrrrrr"
};
