/* XPM */
static char *c6ca55918faa4ce292ddae485a09a7c1[] = {
/* columns rows colors chars-per-pixel */
"16 16 18 1 ",
"  c #078AC6",
". c #098CC7",
"X c #0F8FC9",
"o c #0C8ECA",
"O c #0E8FCA",
"+ c #108FCB",
"@ c #1191CB",
"# c #1291CB",
"$ c #1392CB",
"% c #1190CC",
"& c #79CAFF",
"* c #7CCBFF",
"= c #7DCCFF",
"- c #80CEFF",
"; c #8DD5FF",
": c #91D7FF",
"> c #92D7FF",
", c None",
/* pixels */
",,,,,,,,,,,,,,,,",
",,,,,,,X,,,,,,,,",
",,,,,,,,,,,,,,,,",
",,,,,,,,,,,,,,,,",
",,,,,,,,,,,,,,,,",
",,,,,,;&,,,,,,,,",
",,X,,,,,=,,,,,,,",
",@,,,,,,,,,,,,,,",
",@,,,,,,,*,,,,,,",
",,@,,,,,,>,,,,,,",
",,,@,,,->,, ,,,,",
",,,,+,,,,,,,,,,,",
",,,,,.,,,,,,,,,,",
",,,,,,X,,,,,,,,,",
",,,,,,,%,,,,,,,,",
",,,,,,,,,,,,,,,,"
};
