/* XPM */
static char *bf620bda81b34ef7e1e6f56fcefbcafa[] = {
/* columns rows colors chars-per-pixel */
"64 64 65 1 ",
"  c #0D8DC8",
". c #0F8EC9",
"X c #0F8FC9",
"o c #0E8ECA",
"O c #0F8ECA",
"+ c #0F8FCA",
"@ c #0F8ECB",
"# c #0F8FCB",
"$ c #0E8DCC",
"% c #0F8DCD",
"& c #0F8ECC",
"* c #0F8ECD",
"= c #108ECA",
"- c #108FCA",
"; c #118FCA",
": c #108FCB",
"> c #118FCB",
", c #108FCC",
"< c #118FCC",
"1 c #108FCD",
"2 c #1190C9",
"3 c #1090CA",
"4 c #1190CA",
"5 c #1090CB",
"6 c #1190CB",
"7 c #1091CB",
"8 c #1191CB",
"9 c #1290CA",
"0 c #1291CA",
"q c #1290CB",
"w c #1291CB",
"e c #1391CB",
"r c #1392CA",
"t c #1292CB",
"y c #1392CB",
"u c #1593CB",
"i c #1595CB",
"p c #1090CC",
"a c #1190CC",
"s c #1191CC",
"d c #1290CC",
"f c #1291CC",
"g c #1391CC",
"h c #1291CD",
"j c #1292CC",
"k c #1392CC",
"l c #1393CD",
"z c #1291CE",
"x c #1493CC",
"c c #1493CD",
"v c #1593CE",
"b c #1594CD",
"n c #7DCBFF",
"m c #7ECAFF",
"M c #7ECBFF",
"N c #7CCCFF",
"B c #7DCCFF",
"V c #7CCDFF",
"C c #7DCDFF",
"Z c #7ECCFF",
"A c #7ECDFF",
"S c #7CCEFF",
"D c #7DCEFF",
"F c #7ECEFF",
"G c None",
/* pixels */
"GGGGGGGGGGGGGGGGGGGGGGGGGGGGGGGGGGGGGGGGGGGGGGGGGGGGGGGGGGGGGGGG",
"GGGGGGGGGGGGGGGGGGGGGGGGGGGGGGGGGGGGGGGGGGGGGGGGGGGGGGGGGGGGGGGG",
"GGGGGGGGGGGGGGGGGGGGGGGGGGGGGGGGGGGGGGGGGGGGGGGGGGGGGGGGGGGGGGGG",
"GGGGGGGGGGGGGGGGGGGGGGGGGGGGGGfGGGGGGGGGGGGGGGGGGGGGGGGGGGGGGGGG",
"GGGGGGGGGGGGGGGGGGGGGGGGGGGGGGf;GGGGGGGGGGGGGGGGGGGGGGGGGGGGGGGG",
"GGGGGGGGGGGGGGGGGGGGGGGGGGGGe#GcfGGGGGGGGGGGGGGGGGGGGGGGGGGGGGGG",
"GGGGGGGGGGGGGGGGGGGGGGGGGGG;;GGGffGGGGGGGGGGGGGGGGGGGGGGGGGGGGGG",
"GGGGGGGGGGGGGGGGGGGGGGGGGGGeGGGGGG;GGGGGGGGGGGGGGGGGGGGGGGGGGGGG",
"GGGGGGGGGGGGGGGGGGGGGGGGGGeGGGGGGGGeGGGGGGGGGGGGGGGGGGGGGGGGGGGG",
"GGGGGGGGGGGGGGGGGGGGGGGGGf;GGGGGGGGGfGGGGGGGGGGGGGGGGGGGGGGGGGGG",
"GGGGGGGGGGGGGGGGGGGGGGGGefGGGGGGGGGGGbGGGGGGGGGGGGGGGGGGGGGGGGGG",
"GGGGGGGGGGGGGGGGGGGGGGGeGGGGGGGGGGGGGe1GGGGGGGGGGGGGGGGGGGGGGGGG",
"GGGGGGGGGGGGGGGGGGGGGGeeGGGGGGGGGGGGGGGiGGGGGGGGGGGGGGGGGGGGGGGG",
"GGGGGGGGGGGGGGGGGGGGGfGGGGGGGGGGGGGGGGGG;GGGGGGGGGGGGGGGGGGGGGGG",
"GGGGGGGGGGGGGGGGGGGGeGGGGGGGGGGGGGGGGGGGGGGGGGGGGGGGGGGGGGGGGGGG",
"GGGGGGGGGGGGGGGGGGGe#GGGGGGGGGGGGGGGGGGGGGGGGGGGGGGGGGGGGGGGGGGG",
"GGGGGGGGGGGGGGGGGGe;GGGGGGGGGGGGGGGGGGGGGGeGGGGGGGGGGGGGGGGGGGGG",
"GGGGGGGGGGGGGGGGGefGGGGGGGGGGGGGGGGGGGGGGGGGGGGGGGGGGGGGGGGGGGGG",
"GGGGGGGGGGGGGGGGf#GGGGGGGGGGGGGGGGGGGGGGGGGGGGGGGGGGGGGGGGGGGGGG",
"GGGGGGGGGGGGGGGfuGGGGGGGGGANAAGGGGGGGGGGGGGGGGGGGGGGGGGGGGGGGGGG",
"GGGGGGGGGGGGGGf%GGGGGGGGGAAmVAAGGGGGGGGGGGGGGGGGGGGGGGGGGGGGGGGG",
"GGGGGGGGGGGGGffGGGGGGGGGGVAVmVmAAGGGGGGGGGGGGGGGGGGGGGGGGGGGGGGG",
"GGGGGGGGGGGG;fGGGGGGGGGGVmAGGGGAVmGGGGGGGGGGGGGGGGGGGGGGGGGGGGGG",
"GGGGGGGGGGGf#GGGGGGGGGGAAGGGGGGGAAGGGGGGGGGGGGGGGGGGGGGGGGGGGGGG",
"GGGGGGGGGGefGGGGGGGGGGGAGGGGGGGGmVAGGGGGGGGGGGGGGGGGGGGGGGGGGGGG",
"GGGGGGGGGeGGGGGGGGGGGGAmGGGGGGGGAAAGGGGGGGGGGGGGGGGGGGGGGGGGGGGG",
"GGGGGGGGf;GGGGGGGGGGGGAAGGGGGGGGGmAGGGGGGGGGGGGGGGGGGGGGGGGGGGGG",
"GGGGGGG;fGGGGGGGGGGGGGAGGGGGGGGGGAVmGGGGGGGGGGGGGGGGGGGGGGGGGGGG",
"GGGGGG;GGGGGGGGGGGGGGGAGGGGGGGGGGAAGGGGGGGGGGGGGGGGGGGGGGGGGGGGG",
"GGGGGf#GGGGGGGGGGGGGGGAmGGGGGGGGGGGGGGGGGGGGGGGGGGGGGGGGGGGGGGGG",
"GGGG##GGGGGGGGGGGGGGGGGAAGGGGGGGGGGGGGGGGGGGGGGGGGGGGGGGGGGGGGGG",
"GGGfeGGGGGGGGGGGGGGGGGGAAmGGGGGGGGGGGGGGGGGGGGGGGGGGGGGGGGGGGGGG",
"GGGGeeGGGGGGGGGGGGGGGGGGGAmAVmmAAmAmVGGGGGGGGGGGGGGGGGGG;GGGGGGG",
"GGGGGffGGGGGGGGGGGGGGGGGGGGAAVAAAAmAAAmGGGGGGGGGGGGGGGGb#GGGGGGG",
"GGGGGGe#GGGGGGGGGGGGGGGGGGGGGGGGGGGGGNAGGGGGGGGGGGGGGGefGGGGGGGG",
"GGGGGGGefGGGGGGGGGGGGGGGGGGGGGGGGGGGGmAAGGGGGGGGGGGGGe1GGGGGGGGG",
"GGGGGGGGf%GGGGGGGGGGGGGGGGGGGGGGGGGGmNmGGGGGGGGGGGGGe;GGGGGGGGGG",
"GGGGGGGGGfeGGGGGGGGGGGGGGGGGGGGGGGGAAAGGGGGGGGGGGGGf#GGGGGGGGGGG",
"GGGGGGGGGG#fGGGGGGGGGGGGGGGGGGGGGGGAAGGGGGGGGGGGGGcfGGGGGGGGGGGG",
"GGGGGGGGGGGfeGGGGGGGGGGGGGGGGGmVGAAmGGGGGGGGGGGGG;cGGGGGGGGGGGGG",
"GGGGGGGGGGGG;1GGGGGGGGGGGGGGGmAGANmGGGGGGGGGGGGGfeGGGGGGGGGGGGGG",
"GGGGGGGGGGGGGe%GGGGGGGGGGGGGGAVmAAGGGGGGGGGGGGGfeGGGGGGGGGGGGGGG",
"GGGGGGGGGGGGGGefGGGGGGGGGGGGAAmAAGGGGGGGGGGGGGf;GGGGGGGGGGGGGGGG",
"GGGGGGGGGGGGGGG;eGGGGGGGGGGGGAAGGGGGGGGGGGGGGefGGGGGGGGGGGGGGGGG",
"GGGGGGGGGGGGGGGGf1GGGGGGGGGGGGGGGGGGGGGGGGGGeeGGGGGGGGGGGGGGGGGG",
"GGGGGGGGGGGGGGGGG;;GGGGGGGGGGGGGGGGGGGGGGGGf#GGGGGGGGGGGGGGGGGGG",
"GGGGGGGGGGGGGGGGGGefGGGGGGGGGGGGGGGGGGGGGGefGGGGGGGGGGGGGGGGGGGG",
"GGGGGGGGGGGGGGGGGGGf;GGGGGGGGGGGGGGGGGGGGf%GGGGGGGGGGGGGGGGGGGGG",
"GGGGGGGGGGGGGGGGGGGGe;GGGGGGGGGGGGGGGGGG#eGGGGGGGGGGGGGGGGGGGGGG",
"GGGGGGGGGGGGGGGGGGGGGfeGGGGGGGGGGGGGGGG1eGGGGGGGGGGGGGGGGGGGGGGG",
"GGGGGGGGGGGGGGGGGGGGGGe#GGGGGGGGGGGGGGe;GGGGGGGGGGGGGGGGGGGGGGGG",
"GGGGGGGGGGGGGGGGGGGGGGGeeGGGGGGGGGGGGe#GGGGGGGGGGGGGGGGGGGGGGGGG",
"GGGGGGGGGGGGGGGGGGGGGGGGe#GGGGGGGGGG;fGGGGGGGGGGGGGGGGGGGGGGGGGG",
"GGGGGGGGGGGGGGGGGGGGGGGGG#fGGGGGGGG;;GGGGGGGGGGGGGGGGGGGGGGGGGGG",
"GGGGGGGGGGGGGGGGGGGGGGGGGGe#GGGGGGfeGGGGGGGGGGGGGGGGGGGGGGGGGGGG",
"GGGGGGGGGGGGGGGGGGGGGGGGGGG%fGGGG;fGGGGGGGGGGGGGGGGGGGGGGGGGGGGG",
"GGGGGGGGGGGGGGGGGGGGGGGGGGGGf;GGe;GGGGGGGGGGGGGGGGGGGGGGGGGGGGGG",
"GGGGGGGGGGGGGGGGGGGGGGGGGGGGGfe1pGGGGGGGGGGGGGGGGGGGGGGGGGGGGGGG",
"GGGGGGGGGGGGGGGGGGGGGGGGGGGGGGf;GGGGGGGGGGGGGGGGGGGGGGGGGGGGGGGG",
"GGGGGGGGGGGGGGGGGGGGGGGGGGGGGGGGGGGGGGGGGGGGGGGGGGGGGGGGGGGGGGGG",
"GGGGGGGGGGGGGGGGGGGGGGGGGGGGGGGGGGGGGGGGGGGGGGGGGGGGGGGGGGGGGGGG",
"GGGGGGGGGGGGGGGGGGGGGGGGGGGGGGGGGGGGGGGGGGGGGGGGGGGGGGGGGGGGGGGG",
"GGGGGGGGGGGGGGGGGGGGGGGGGGGGGGGGGGGGGGGGGGGGGGGGGGGGGGGGGGGGGGGG",
"GGGGGGGGGGGGGGGGGGGGGGGGGGGGGGGGGGGGGGGGGGGGGGGGGGGGGGGGGGGGGGGG"
};
